<svg xmlns="http://www.w3.org/2000/svg" viewBox="0 0 512 512">
  <defs>
    <linearGradient id="g" x1="0%" y1="0%" x2="100%" y2="100%">
      <stop offset="0%" stop-color="#3b82f6"/>
      <stop offset="100%" stop-color="#1d4ed8"/>
    </linearGradient>
  </defs>
  <rect width="512" height="512" rx="112" fill="url(#g)"/>
  <g transform="translate(128 128) scale(10.667)" fill="none" stroke="white" stroke-width="2.2" stroke-linecap="round" stroke-linejoin="round">
    <path d="M19 17h2c.6 0 1-.4 1-1v-3c0-.9-.7-1.7-1.5-1.9C18.7 10.6 16 10 16 10s-1.3-1.4-2.2-2.3c-.5-.4-1.1-.7-1.8-.7H5c-1.1 0-2 .9-2 2v7c0 1.1.9 2 2 2h10c0-1.1.9-2 2-2Z"/>
    <circle cx="7" cy="17" r="2" fill="white"/>
    <circle cx="17" cy="17" r="2" fill="white"/>
    <path d="M3 14h18M14 7v4"/>
  </g>
</svg>
