<svg xmlns="http://www.w3.org/2000/svg" viewBox="0 0 1200 630">
  <defs>
    <linearGradient id="bg" x1="0%" y1="0%" x2="100%" y2="100%">
      <stop offset="0%" stop-color="#0f172a"/>
      <stop offset="100%" stop-color="#1e3a8a"/>
    </linearGradient>
    <linearGradient id="ic" x1="0%" y1="0%" x2="100%" y2="100%">
      <stop offset="0%" stop-color="#3b82f6"/>
      <stop offset="100%" stop-color="#1d4ed8"/>
    </linearGradient>
  </defs>
  <rect width="1200" height="630" fill="url(#bg)"/>
  <g opacity="0.08" stroke="#60a5fa" stroke-width="2" fill="none">
    <path d="M0 500 Q 300 350 600 450 T 1200 400"/>
    <path d="M0 400 Q 300 250 600 350 T 1200 300"/>
    <path d="M0 550 Q 300 450 600 520 T 1200 480"/>
  </g>
  <g transform="translate(90 235)">
    <rect width="160" height="160" rx="36" fill="url(#ic)"/>
    <g transform="translate(32 32) scale(4.166)" fill="none" stroke="white" stroke-width="2.2" stroke-linecap="round" stroke-linejoin="round">
      <path d="M19 17h2c.6 0 1-.4 1-1v-3c0-.9-.7-1.7-1.5-1.9C18.7 10.6 16 10 16 10s-1.3-1.4-2.2-2.3c-.5-.4-1.1-.7-1.8-.7H5c-1.1 0-2 .9-2 2v7c0 1.1.9 2 2 2h10c0-1.1.9-2 2-2Z"/>
      <circle cx="7" cy="17" r="2" fill="white"/>
      <circle cx="17" cy="17" r="2" fill="white"/>
    </g>
  </g>
  <g transform="translate(290 260)" font-family="Inter, system-ui, sans-serif" fill="white">
    <text x="0" y="0" font-size="84" font-weight="800" letter-spacing="-2">RouteLive</text>
    <text x="0" y="60" font-size="28" font-weight="500" opacity="0.85">Real-time transit tracking for daily commuters</text>
    <g transform="translate(0 100)" font-size="18" font-weight="600">
      <rect x="0" y="0" width="120" height="36" rx="18" fill="#3b82f6"/>
      <text x="60" y="23" text-anchor="middle">Live ETA</text>
      <rect x="132" y="0" width="140" height="36" rx="18" fill="#10b981"/>
      <text x="202" y="23" text-anchor="middle">Offline Ready</text>
      <rect x="284" y="0" width="120" height="36" rx="18" fill="#8b5cf6"/>
      <text x="344" y="23" text-anchor="middle">Free Forever</text>
    </g>
  </g>
</svg>
